# xmcd
#
# Track frame offsets:
# 182
# 19210
# 34440
# 50725
# 68747
# 85525
# 96145
# 115937
# 131687
# 148195
# 166820
# 183460
# 202792
# 221925
#
# Disc length: 3146 seconds
#
# Revision: 0
# Processed by: cddbd v1.5PL3 Copyright (c) Steve Scherf et al.
# Submitted via: Audion 3.0.2 (http://www.panic.com/audion/)
#
DISCID=cc0c480e
DTITLE=Various Artist - kl
DYEAR=1900
DGENRE=
TTITLE0=01
TTITLE1=02
TTITLE2=03
TTITLE3=044
TTITLE4=05
TTITLE5=6
TTITLE6=77
TTITLE7=8
TTITLE8=9
TTITLE9=10
TTITLE10=11
TTITLE11=12
TTITLE12=13
TTITLE13=14
EXTD=
EXTT0=
EXTT1=
EXTT2=
EXTT3=
EXTT4=
EXTT5=
EXTT6=
EXTT7=
EXTT8=
EXTT9=
EXTT10=
EXTT11=
EXTT12=
EXTT13=
PLAYORDER=
